<?xml version="1.0" standalone="no"?>
<!DOCTYPE svg PUBLIC "-//W3C//DTD SVG 20010904//EN"
 "http://www.w3.org/TR/2001/REC-SVG-20010904/DTD/svg10.dtd">
<svg version="1.0" xmlns="http://www.w3.org/2000/svg"
 width="989.000000pt" height="1280.000000pt" viewBox="0 0 989.000000 1280.000000"
 preserveAspectRatio="xMidYMid meet">
<metadata>
Created by potrace 1.15, written by Peter Selinger 2001-2017
</metadata>
<g transform="translate(0.000000,1280.000000) scale(0.100000,-0.100000)"
fill="#000000" stroke="none">
<path d="M2494 12594 c-23 -8 -79 -46 -125 -84 -46 -38 -129 -100 -184 -137
-109 -74 -96 -71 -323 -89 -51 -4 -95 -11 -98 -16 -15 -24 23 -33 159 -38
l142 -5 -56 -55 c-31 -30 -70 -75 -88 -100 -17 -25 -54 -72 -81 -105 -55 -67
-61 -85 -26 -85 16 0 62 39 159 135 176 174 189 176 113 20 -102 -210 -150
-325 -139 -336 16 -16 50 6 82 54 15 23 46 62 68 87 23 25 76 87 120 139 59
71 93 102 138 127 105 58 146 41 190 -81 25 -67 27 -83 20 -138 -15 -107 -12
-145 12 -168 12 -12 28 -19 35 -16 8 3 24 41 36 86 18 65 21 95 16 158 -4 46
-2 101 5 133 11 56 6 111 -20 232 -7 32 -10 60 -7 63 10 10 116 -49 224 -123
135 -94 274 -222 484 -447 96 -103 231 -245 300 -315 137 -140 156 -167 378
-540 145 -244 272 -494 340 -665 44 -114 53 -233 28 -400 -23 -159 -31 -183
-62 -187 -29 -3 -47 -40 -83 -173 -12 -44 -33 -105 -46 -135 -12 -30 -37 -89
-54 -130 -17 -41 -38 -88 -47 -104 -10 -18 -19 -69 -25 -140 -7 -100 -12 -121
-48 -198 -35 -78 -39 -95 -39 -166 0 -59 -10 -115 -35 -214 -19 -73 -38 -157
-42 -185 -8 -62 -40 -110 -115 -173 -103 -87 -218 -213 -236 -260 -10 -25 -43
-88 -74 -140 -30 -52 -66 -123 -79 -156 -19 -52 -28 -64 -60 -79 -21 -9 -51
-28 -67 -41 -24 -20 -25 -23 -6 -14 31 15 41 5 10 -10 -40 -21 -170 -121 -164
-127 3 -3 49 20 101 52 53 31 99 55 101 52 3 -2 -30 -37 -73 -77 -56 -51 -101
-83 -160 -110 -135 -63 -169 -109 -341 -455 -38 -77 -77 -157 -86 -177 -10
-20 -31 -51 -47 -67 -16 -17 -29 -37 -29 -45 0 -8 -5 -18 -11 -21 -6 -4 -8
-13 -5 -21 3 -7 1 -16 -4 -19 -6 -4 -10 -14 -10 -23 1 -15 2 -15 15 2 20 27
31 12 16 -21 -7 -16 -15 -39 -17 -53 -3 -14 -11 -30 -20 -36 -8 -7 -12 -19 -8
-28 7 -17 -41 -96 -58 -96 -12 0 -38 -26 -38 -38 0 -5 -10 -17 -23 -26 -19
-15 -19 -16 -3 -11 19 6 19 5 1 -15 -17 -19 -12 -26 18 -21 12 2 -11 -37 -25
-42 -10 -4 -10 -6 0 -6 7 -1 10 -6 6 -13 -5 -8 -2 -9 9 -5 11 4 17 1 17 -8 0
-9 -10 -15 -24 -15 -14 0 -28 -4 -31 -10 -3 -5 2 -10 12 -10 15 0 16 -2 3 -10
-9 -6 -11 -10 -3 -10 27 0 -1 -28 -63 -64 -46 -26 -64 -42 -62 -54 2 -9 -8
-27 -22 -40 -23 -22 -23 -22 -2 -12 15 7 22 8 22 0 0 -6 -10 -15 -22 -20 -13
-5 -17 -9 -10 -9 7 -1 10 -5 7 -11 -9 -14 5 -12 45 8 34 17 36 17 53 -3 10
-11 15 -14 11 -6 -5 9 -3 12 4 7 7 -4 12 -16 12 -28 0 -14 5 -18 16 -14 15 6
15 3 -1 -21 -16 -26 -14 -25 19 6 19 19 38 32 41 29 8 -7 -5 -38 -16 -38 -5 0
-9 -9 -9 -19 0 -11 -5 -23 -10 -26 -6 -4 -8 -10 -5 -15 3 -5 -3 -13 -12 -19
-17 -10 -17 -10 0 -11 9 0 17 -4 17 -9 0 -5 8 -11 18 -14 14 -3 12 -6 -10 -17
-16 -7 -28 -17 -28 -22 0 -5 10 -3 22 3 29 16 68 20 68 8 0 -5 -20 -24 -45
-41 -25 -17 -43 -34 -40 -36 2 -3 10 0 17 6 19 15 98 41 98 32 0 -5 -12 -18
-27 -29 -16 -11 -25 -21 -21 -21 4 0 33 21 65 47 32 25 63 50 70 55 7 6 19 6
30 -1 17 -10 17 -10 -2 -11 -12 -1 -15 -4 -7 -7 10 -4 10 -8 0 -21 -12 -15
-11 -15 12 -1 14 8 32 20 40 25 8 5 25 9 36 9 20 1 20 -1 8 -20 -7 -11 -27
-29 -44 -40 -16 -11 -30 -23 -30 -28 0 -4 12 1 27 10 15 10 42 23 60 29 29 10
31 10 23 -6 -5 -9 -16 -22 -24 -30 -9 -7 -16 -17 -16 -23 0 -5 9 2 20 16 16
21 25 24 43 18 12 -5 22 -13 21 -20 -1 -6 -2 -20 -2 -31 -1 -12 -9 -20 -21
-20 -10 0 -24 -7 -31 -15 -11 -13 -10 -15 6 -9 13 4 10 -1 -8 -16 -27 -21 -28
-50 -2 -50 8 0 14 -4 14 -10 0 -5 -4 -10 -10 -10 -11 0 -34 -39 -27 -47 3 -2
17 3 31 12 24 16 26 16 26 1 0 -9 -11 -21 -25 -26 -34 -13 -31 -17 8 -12 l32
5 -19 -22 c-20 -22 -20 -22 0 -15 10 4 29 14 41 21 17 11 22 12 26 1 3 -7 6
-3 6 8 2 46 61 55 61 10 1 -20 1 -20 14 -3 13 17 14 17 20 0 6 -14 9 -15 15
-4 6 9 12 5 22 -17 10 -23 17 -28 26 -20 23 19 26 -20 4 -48 -13 -17 -21 -40
-20 -63 l1 -36 8 38 c8 44 7 42 43 51 16 4 27 2 27 -4 0 -5 -10 -10 -22 -11
-22 0 -22 -1 -3 -9 11 -4 24 -4 30 1 19 18 28 8 10 -11 -23 -26 -11 -25 31 1
32 20 39 17 36 -12 -1 -4 7 -5 16 -2 15 3 18 -1 16 -26 -1 -16 -5 -35 -9 -43
-4 -7 5 1 19 17 14 17 26 26 25 20 -1 -5 -1 -41 1 -80 1 -47 4 -63 9 -50 8 18
10 16 24 -15 l15 -35 -6 39 c-4 28 -2 37 6 32 7 -4 12 -18 12 -32 0 -13 5 -24
10 -24 6 0 10 19 10 43 1 33 3 38 11 25 15 -27 39 -22 39 8 0 16 10 34 26 46
14 11 37 38 50 60 14 22 28 38 31 35 2 -3 -3 -18 -13 -34 l-18 -28 21 18 c21
18 22 18 26 -10 l4 -28 8 34 8 33 13 -32 c17 -40 18 -92 2 -108 -8 -8 -9 -15
-3 -20 6 -4 10 -20 10 -37 0 -19 5 -29 13 -27 8 1 12 -10 12 -32 0 -37 14 -55
26 -35 4 8 3 9 -4 5 -7 -4 -12 -1 -12 8 0 24 11 46 21 41 4 -3 5 -13 2 -22 -4
-10 -2 -14 5 -10 6 4 12 -1 14 -10 2 -10 12 13 22 51 18 64 20 68 34 50 13
-18 14 -18 7 4 -3 12 -2 22 4 22 5 0 17 8 26 17 10 9 28 17 41 18 20 0 24 -4
24 -30 1 -16 7 -41 16 -55 16 -27 16 -26 -1 38 -7 27 9 123 20 120 6 -2 10 -8
10 -15 0 -7 9 -19 20 -27 18 -13 19 -17 6 -38 -14 -22 -13 -22 5 -8 10 8 21
17 24 20 11 11 50 30 50 24 0 -3 -5 -15 -11 -27 -11 -21 -11 -21 14 1 25 24
25 24 32 3 3 -12 3 -31 0 -43 -6 -18 -5 -20 5 -11 15 14 40 6 40 -12 0 -20 21
-30 31 -14 6 10 9 11 9 2 0 -19 27 -16 34 3 3 9 6 28 6 42 l0 27 20 -25 c10
-14 25 -25 32 -25 8 0 16 -20 20 -55 16 -111 41 -217 73 -307 l33 -91 -20 -79
c-16 -60 -21 -124 -25 -278 l-5 -200 -44 -97 c-102 -227 -156 -474 -169 -768
-13 -299 -38 -588 -70 -825 -19 -137 -46 -335 -60 -440 -41 -297 -69 -432
-110 -531 -47 -116 -58 -159 -51 -213 5 -38 2 -51 -20 -82 -43 -62 -69 -242
-43 -292 7 -12 33 -43 59 -68 48 -48 64 -78 74 -140 8 -45 88 -149 137 -178
52 -30 121 -27 253 10 61 17 123 35 139 41 36 14 67 58 67 95 0 46 -67 139
-163 227 -71 65 -88 86 -92 115 -12 77 -26 108 -66 149 -41 41 -42 43 -31 81
15 49 15 132 0 221 -21 123 9 267 157 752 104 345 192 618 205 638 7 12 17 10
61 -10 79 -37 150 -35 216 8 71 46 110 87 144 154 60 118 116 193 167 225 82
51 98 109 72 258 -10 54 -19 76 -41 95 -32 31 -48 66 -82 186 -96 334 -154
587 -164 714 -5 66 1 107 51 345 32 149 62 289 68 312 10 42 21 53 33 33 3 -5
11 -10 17 -10 6 0 4 8 -5 18 -10 10 -17 29 -16 43 l1 24 11 -26 c19 -41 37
-58 54 -52 13 5 15 2 10 -11 -4 -10 -3 -15 3 -11 6 3 10 18 10 32 0 21 2 24
15 13 12 -10 15 -9 16 6 1 19 33 -41 43 -81 3 -10 8 -17 11 -14 3 3 -2 22 -10
42 -30 72 -10 102 21 33 l15 -31 -6 29 c-6 29 -6 29 17 14 24 -16 24 -15 25
17 2 55 15 64 29 19 6 -21 12 -31 13 -22 1 9 6 18 13 20 19 7 49 -30 68 -85
14 -38 19 -45 19 -27 1 18 4 21 10 11 15 -24 11 78 -5 126 -9 25 -13 47 -10
51 8 8 11 3 34 -58 19 -51 21 -53 29 -31 8 21 11 22 16 7 4 -10 4 -23 0 -28
-4 -7 -1 -8 6 -4 8 5 10 19 6 37 -4 17 -2 29 4 29 6 0 6 11 1 31 -5 18 -6 39
-1 47 6 11 11 4 16 -26 8 -50 21 -61 29 -27 6 22 9 24 27 14 20 -10 21 -9 14
22 -7 30 -6 32 9 20 9 -7 16 -22 16 -32 0 -11 5 -20 10 -20 6 -1 15 -2 21 -3
6 0 17 -10 25 -20 8 -11 14 -15 14 -9 0 6 -8 21 -18 34 -24 32 -34 59 -21 59
6 0 13 -9 16 -20 7 -28 23 -14 23 20 0 46 24 27 65 -51 39 -74 50 -86 42 -41
l-5 27 24 -30 c27 -34 32 -27 8 11 -15 23 -15 24 1 18 15 -6 16 -4 6 15 -7 12
-10 25 -7 30 3 5 -8 23 -25 41 -27 28 -31 38 -26 71 3 22 2 39 -2 39 -4 0 -7
17 -8 38 l0 37 9 -30 c18 -57 49 -115 63 -115 7 0 16 -12 20 -27 4 -19 9 -23
15 -14 6 11 11 8 20 -9 8 -15 15 -19 19 -11 5 7 12 2 20 -16 9 -20 15 -23 20
-14 7 11 10 11 14 0 2 -8 3 5 1 29 -2 23 -8 51 -14 62 -5 10 -10 27 -10 37 1
14 6 12 26 -12 17 -20 22 -23 15 -8 -16 32 -13 41 7 18 9 -11 27 -29 39 -39
21 -18 22 -17 17 6 -5 22 -5 22 10 4 9 -11 16 -24 16 -30 0 -5 3 -7 6 -4 3 4
0 16 -6 28 -18 34 -5 48 14 15 l17 -30 -6 30 c-6 30 -5 29 35 -15 22 -25 38
-36 34 -26 -6 14 -4 17 6 11 9 -5 11 -4 6 4 -4 6 -12 8 -18 5 -7 -4 -8 -2 -4
4 4 7 4 18 -1 25 -4 6 -8 17 -9 22 -2 14 -60 99 -77 114 -8 6 -27 41 -42 78
-15 38 -31 72 -35 76 -4 4 -5 19 -2 33 4 20 7 23 14 12 7 -9 8 -7 5 10 -3 12
-1 20 4 16 5 -3 9 0 9 7 0 7 8 5 21 -7 16 -14 22 -15 28 -5 8 12 21 1 97 -84
14 -16 23 -23 19 -15 -4 8 25 -16 65 -55 52 -50 63 -57 37 -26 -20 25 -35 46
-33 48 5 5 40 -14 71 -37 17 -12 16 -11 -2 11 -25 28 -31 48 -10 30 8 -6 17
-8 20 -4 4 3 15 0 24 -8 10 -7 7 -1 -6 14 -14 15 -21 27 -17 27 5 0 4 6 -1 13
-6 6 -13 30 -17 52 l-6 40 41 -45 c26 -29 35 -35 23 -16 l-18 29 22 -12 c18
-10 22 -9 22 4 0 18 4 19 31 3 17 -11 22 -10 30 5 10 17 11 17 37 -1 62 -42
107 -66 93 -49 -12 15 -11 17 5 18 17 0 16 1 -2 9 -12 5 -25 14 -30 21 -5 9
-2 10 9 6 54 -22 53 -22 39 -4 -8 9 -23 19 -34 23 -16 5 -18 8 -7 15 11 8 9
13 -11 29 -14 11 -32 26 -40 32 -8 7 -28 19 -45 26 -27 12 -28 14 -12 23 14 8
27 3 60 -22 72 -56 74 -57 58 -34 -8 11 -37 44 -65 73 -28 28 -46 52 -40 52 5
0 14 -3 20 -7 5 -5 -7 7 -26 25 l-35 33 40 -7 c22 -4 52 -8 66 -9 14 -1 31 -5
38 -9 7 -5 14 -6 17 -3 3 2 -35 40 -83 83 -131 118 -155 143 -149 153 4 5 2
12 -4 16 -5 3 -10 13 -10 22 0 13 5 11 26 -8 25 -23 26 -23 15 -2 -6 12 -15
24 -20 27 -5 4 -7 15 -4 25 3 10 0 22 -6 25 -9 6 -51 90 -51 103 0 2 5 1 11
-3 7 -4 7 1 -1 16 -18 34 -2 38 24 6 l22 -29 -3 39 c-4 37 -3 38 11 20 16 -19
16 -19 16 2 0 43 -85 190 -172 299 -32 39 -58 76 -58 81 0 5 -28 40 -62 77
-35 37 -65 73 -68 80 -7 18 -89 105 -99 105 -5 0 -15 8 -22 17 -12 15 -12 16
4 10 27 -10 20 6 -20 45 -42 39 -240 185 -288 212 -72 40 -111 65 -160 106
-48 40 -54 49 -65 104 -7 34 -23 89 -36 123 -13 34 -24 78 -24 99 0 47 -27
105 -81 169 -23 28 -53 73 -66 101 l-25 50 30 70 c16 38 36 88 43 112 9 30 28
58 63 90 28 26 62 69 76 94 13 26 48 78 77 115 29 37 65 87 80 111 16 24 43
67 62 95 58 89 141 231 141 242 0 5 4 16 9 24 23 37 94 -52 195 -243 32 -61
101 -178 155 -260 54 -83 128 -203 166 -266 38 -63 106 -172 151 -242 45 -69
104 -168 130 -219 54 -105 146 -231 197 -271 117 -91 193 -143 366 -246 223
-133 323 -205 402 -288 60 -64 145 -205 180 -299 19 -51 40 -79 147 -187 107
-109 132 -130 176 -144 28 -9 71 -28 96 -42 62 -35 174 -43 209 -15 47 38 3
73 -117 92 -39 6 -78 21 -111 43 -57 37 -62 59 -21 90 24 17 29 18 69 3 58
-20 87 -19 143 9 45 22 49 22 125 8 113 -21 257 -18 328 7 62 22 95 46 95 68
0 16 -8 16 -89 -1 -62 -14 -211 -11 -211 3 0 4 15 12 33 19 45 16 117 79 117
102 0 33 -19 32 -78 -4 -35 -22 -80 -40 -117 -46 -33 -6 -81 -15 -106 -21 -43
-10 -51 -8 -100 20 -30 16 -90 39 -134 50 -76 19 -173 56 -257 96 -20 10 -42
29 -49 42 -7 14 -36 43 -64 66 -27 22 -81 71 -120 107 -38 37 -117 107 -175
155 -174 144 -264 230 -362 343 -51 59 -160 180 -243 270 -191 207 -232 265
-315 437 -153 316 -202 415 -253 508 -38 68 -67 141 -97 240 -63 214 -105 320
-177 450 -99 179 -134 277 -112 318 4 9 9 36 10 60 1 24 6 49 11 55 4 6 9 35
10 65 2 40 -2 60 -16 79 -22 29 -81 70 -101 70 -20 0 -23 19 -16 90 l7 65 14
-48 c9 -35 23 -57 51 -79 22 -17 39 -37 39 -45 0 -7 4 -13 9 -13 5 0 22 -11
38 -24 15 -13 44 -27 63 -30 47 -10 90 -27 90 -36 0 -4 13 -10 29 -13 15 -3
41 -17 57 -30 37 -31 108 -71 98 -56 -4 7 -8 25 -10 41 l-4 29 29 -21 c19 -13
32 -17 36 -10 5 8 11 8 20 0 11 -9 12 -6 8 12 l-6 23 23 -20 23 -20 -12 23
c-7 12 -10 26 -7 31 3 4 -1 17 -9 27 -23 30 -19 33 39 33 30 -1 59 2 65 6 6 3
11 1 11 -4 0 -6 5 -11 10 -11 6 0 10 6 10 14 0 25 33 29 52 7 16 -21 16 -21
23 10 7 30 7 30 27 12 19 -17 19 -17 13 10 -8 32 -5 33 62 8 29 -11 76 -20
105 -22 65 -3 150 10 142 22 -3 5 -3 9 -1 9 13 0 84 -34 100 -48 9 -8 17 -12
17 -7 0 4 7 2 15 -5 11 -9 18 -10 29 -1 7 6 22 8 32 4 17 -6 17 -5 5 10 -12
15 -11 17 5 18 11 1 24 1 29 0 6 -1 -3 10 -20 24 -16 14 -33 25 -37 25 -14 0
-3 95 12 102 11 5 10 7 -6 7 -22 1 -66 29 -49 32 37 6 54 8 81 11 29 3 30 5
23 36 -7 33 -7 33 17 17 35 -23 29 -10 -13 30 -32 29 -35 34 -18 35 11 0 35
-9 54 -21 18 -11 35 -18 38 -15 3 2 -6 10 -19 17 -41 22 -79 62 -65 71 8 5 7
8 -5 8 -10 0 -18 4 -18 9 0 5 -13 13 -28 19 -16 5 -35 16 -43 23 -22 21 -75
49 -92 49 -9 0 -19 5 -23 11 -4 8 1 9 16 4 19 -6 22 -4 17 9 -5 14 0 13 34 -4
22 -12 50 -31 62 -43 12 -12 24 -22 27 -22 3 -1 15 -6 28 -13 19 -11 22 -10
22 3 0 13 3 13 20 3 16 -10 22 -10 32 1 7 8 8 11 2 8 -6 -4 -20 1 -30 9 -18
15 -18 15 -1 10 30 -10 40 3 22 30 -8 13 -12 24 -7 24 5 0 -9 18 -30 41 -27
29 -37 46 -33 60 4 10 3 24 -2 31 -4 7 -8 18 -9 23 -1 6 -5 18 -10 29 -6 15
-4 17 14 12 18 -6 21 -4 15 11 -6 16 -5 17 12 3 17 -14 18 -14 6 9 -8 15 -9
21 -2 17 15 -10 14 7 -1 23 -11 11 -9 12 8 3 12 -6 24 -9 26 -6 3 2 11 -2 18
-11 14 -17 35 -21 24 -4 -4 8 0 8 15 0 20 -11 25 -8 22 13 -1 4 11 5 26 2 l28
-7 -25 21 c-18 14 -20 20 -10 20 9 0 22 -6 30 -12 8 -7 6 -2 -5 11 -18 22 -18
24 -2 18 34 -13 16 3 -33 28 -43 22 -50 29 -50 55 0 17 -4 30 -9 30 -5 0 -11
18 -15 39 -5 33 -10 40 -31 43 -28 3 -35 23 -8 23 10 0 22 10 28 22 9 17 14
19 30 10 19 -10 19 -9 4 9 -9 10 -20 29 -23 41 -6 18 -4 21 16 15 20 -5 21 -4
10 11 -12 14 -10 16 15 14 20 -1 27 2 24 13 -2 8 -4 21 -4 29 0 7 -20 26 -45
42 -51 32 -94 94 -86 123 4 10 0 22 -7 27 -12 8 -12 10 -1 18 10 6 7 10 -13
15 -33 8 -31 41 3 40 18 0 20 2 9 15 -10 12 -9 14 8 7 17 -6 17 -4 -4 18 -17
18 -20 26 -10 26 8 0 1 13 -19 30 -34 31 -34 37 -1 20 10 -6 19 -7 19 -2 0 5
-12 15 -27 23 -16 7 -40 23 -55 35 l-27 22 24 6 c14 4 37 4 53 1 l27 -5 -30
14 c-16 9 -38 15 -47 16 -10 0 -18 5 -18 10 0 6 -18 19 -40 29 -42 19 -43 31
-2 31 32 0 26 5 -16 13 -21 4 -31 3 -27 -3 3 -6 -1 -10 -9 -10 -10 0 -13 6 -9
17 5 13 2 15 -11 10 -10 -4 -37 -2 -60 5 -22 6 -49 10 -60 9 -12 -2 -16 1 -10
10 5 9 2 10 -12 5 -10 -4 -32 -10 -48 -13 -24 -5 -28 -3 -23 10 4 10 1 17 -6
18 -25 2 -52 -3 -64 -13 -9 -7 -18 -7 -28 2 -12 10 -18 10 -30 0 -12 -10 -18
-9 -31 5 -12 11 -19 13 -24 5 -4 -6 -20 -12 -36 -13 -16 -1 -32 -5 -35 -10 -3
-4 -34 -9 -70 -11 -77 -5 -115 -19 -191 -68 -56 -36 -60 -37 -126 -31 -78 6
-207 -16 -287 -50 -81 -34 -179 -101 -236 -162 -80 -85 -103 -108 -134 -129
-40 -27 -69 -99 -61 -152 3 -26 0 -68 -9 -101 -20 -80 -48 -350 -41 -395 5
-31 3 -38 -14 -43 -11 -3 -24 -3 -30 0 -14 9 -13 36 2 32 6 -1 14 6 16 16 2
10 -2 17 -12 17 -9 0 -16 5 -16 10 0 6 7 10 15 10 8 0 15 7 15 15 0 32 -28 12
-46 -32 -21 -55 -23 -125 -4 -148 14 -17 81 -20 110 -5 16 9 22 5 35 -19 19
-37 19 -82 1 -126 -17 -41 -53 -81 -63 -72 -3 4 2 13 12 21 17 12 17 16 6 30
-13 15 -15 15 -32 0 -23 -20 -25 -8 -4 16 14 15 14 19 1 29 -12 10 -17 8 -26
-9 -7 -12 -10 -31 -7 -41 4 -15 2 -17 -13 -9 -23 13 -30 4 -30 -41 0 -21 -4
-41 -10 -44 -6 -4 -10 7 -10 24 0 28 -3 31 -30 31 -17 0 -33 -7 -38 -17 -8
-14 -17 -10 -67 33 -59 51 -88 87 -175 218 -29 43 -105 133 -169 200 -77 80
-146 166 -204 251 -48 72 -130 189 -183 260 -68 93 -115 171 -165 275 -114
236 -121 249 -184 320 -91 102 -150 149 -385 304 -227 150 -534 373 -635 461
-107 93 -130 105 -199 104 -34 0 -80 -7 -102 -15z m4413 -1668 c2 -2 -16 -6
-41 -8 -44 -3 -54 1 -40 15 7 7 73 1 81 -7z m39 -36 c15 -6 24 -13 21 -16 -8
-8 -77 7 -77 17 0 12 23 11 56 -1z m-1853 -422 c7 -4 24 -5 40 -2 31 7 37 -10
8 -26 -53 -28 -100 4 -86 58 l7 27 10 -25 c5 -13 14 -28 21 -32z m87 -302 c0
-3 -4 -8 -10 -11 -5 -3 -10 -1 -10 4 0 6 5 11 10 11 6 0 10 -2 10 -4z m1635
-36 c3 -5 -1 -10 -10 -10 -9 0 -13 5 -10 10 3 6 8 10 10 10 2 0 7 -4 10 -10z
m9 -32 c-5 -8 -2 -9 9 -5 10 4 24 10 34 14 12 5 14 3 8 -7 -6 -10 -3 -12 13
-8 12 4 20 2 17 -2 -3 -5 1 -11 7 -14 15 -6 -81 2 -132 11 l-35 7 40 6 c22 4
41 8 43 9 2 0 0 -4 -4 -11z m80 -47 c10 -15 -21 -20 -58 -10 -20 5 -36 12 -36
14 0 9 89 5 94 -4z m-679 -182 c-4 -6 1 -17 11 -24 26 -19 4 -19 -34 1 -36 17
-43 29 -12 19 11 -4 20 -2 20 4 0 6 5 11 11 11 5 0 7 -5 4 -11z m-551 -88 c23
-33 26 -44 18 -72 l-8 -34 -22 64 c-32 95 -30 103 12 42z m452 -34 c4 -4 -2
-7 -14 -7 -11 0 -24 5 -27 10 -7 11 30 8 41 -3z m22 -3818 c19 -17 32 -32 30
-35 -3 -2 -22 12 -44 31 -21 19 -34 34 -29 34 6 0 25 -13 43 -30z m142 -207
c-11 -2 -35 9 -53 24 -28 23 -29 26 -8 19 18 -5 22 -4 16 6 -5 7 8 -1 28 -17
33 -25 35 -29 17 -32z m-3780 -77 c-7 -19 -6 -23 5 -18 9 3 15 -1 15 -9 0 -7
-8 -14 -18 -15 -14 -1 -19 7 -20 33 -2 25 2 34 12 34 12 0 14 -5 6 -25z m50
-7 c0 -19 -2 -20 -10 -8 -13 19 -13 30 0 30 6 0 10 -10 10 -22z m3537 -150 c3
-18 1 -19 -13 -7 -10 8 -12 15 -5 17 6 2 8 9 4 15 -3 7 -2 9 2 4 5 -4 10 -17
12 -29z m-767 -406 c0 -15 -2 -15 -10 -2 -13 20 -13 33 0 25 6 -3 10 -14 10
-23z m-1934 -119 c-14 -20 -26 -33 -26 -28 0 16 40 78 46 72 3 -3 -6 -23 -20
-44z m1280 -1476 c26 -75 27 -82 15 -142 -8 -37 -10 -85 -6 -117 6 -45 3 -62
-14 -97 -12 -22 -28 -41 -37 -41 -32 0 -62 -31 -69 -72 -4 -22 -19 -54 -35
-72 l-29 -31 34 118 c47 163 74 301 88 440 6 65 14 112 18 105 4 -7 19 -48 35
-91z"/>
<path d="M7041 11286 c2 -2 15 -9 29 -15 24 -11 24 -11 6 3 -16 13 -49 24 -35
12z"/>
<path d="M7000 11171 c0 -5 9 -11 21 -14 16 -4 18 -3 8 9 -13 16 -29 19 -29 5z"/>
<path d="M7030 10563 c0 -5 13 -17 28 -27 l27 -19 -24 26 c-26 28 -31 32 -31
20z"/>
<path d="M7060 10506 c0 -2 8 -10 18 -17 15 -13 16 -12 3 4 -13 16 -21 21 -21
13z"/>
<path d="M6455 5580 c10 -11 20 -20 23 -20 3 0 -3 9 -13 20 -10 11 -20 20 -23
20 -3 0 3 -9 13 -20z"/>
<path d="M2316 5485 c-11 -8 -15 -15 -10 -15 6 0 19 7 30 15 10 8 15 14 9 14
-5 0 -19 -6 -29 -14z"/>
<path d="M5870 5323 c0 -6 8 -17 18 -24 16 -13 16 -13 2 6 -8 11 -16 22 -17
24 -2 2 -3 0 -3 -6z"/>
<path d="M6260 5263 c0 -5 13 -17 28 -27 l27 -19 -24 26 c-26 28 -31 32 -31
20z"/>
<path d="M2891 5074 c0 -11 3 -14 6 -6 3 7 2 16 -1 19 -3 4 -6 -2 -5 -13z"/>
<path d="M5886 4997 c3 -10 9 -15 12 -12 3 3 0 11 -7 18 -10 9 -11 8 -5 -6z"/>
<path d="M3032 4949 c-13 -16 -20 -29 -15 -29 5 0 19 14 31 30 29 39 14 38
-16 -1z"/>
<path d="M3149 4893 c-13 -16 -12 -17 4 -4 16 13 21 21 13 21 -2 0 -10 -8 -17
-17z"/>
</g>
</svg>
