<?xml version="1.0" standalone="no"?>
<!DOCTYPE svg PUBLIC "-//W3C//DTD SVG 20010904//EN"
 "http://www.w3.org/TR/2001/REC-SVG-20010904/DTD/svg10.dtd">
<svg version="1.0" xmlns="http://www.w3.org/2000/svg"
 width="1264.000000pt" height="1280.000000pt" viewBox="0 0 1264.000000 1280.000000"
 preserveAspectRatio="xMidYMid meet">
<metadata>
Created by potrace 1.15, written by Peter Selinger 2001-2017
</metadata>
<g transform="translate(0.000000,1280.000000) scale(0.100000,-0.100000)"
fill="#000000" stroke="none">
<path d="M2713 12792 c-6 -4 -17 -21 -26 -38 -52 -102 -136 -171 -290 -239
-49 -21 -109 -54 -134 -73 -45 -34 -46 -35 -98 -23 -114 26 -292 138 -373 237
-17 21 -33 36 -35 33 -2 -2 -16 -40 -31 -84 -35 -100 -60 -144 -155 -270 -42
-55 -100 -141 -129 -191 l-54 -91 -125 -7 c-69 -3 -128 -8 -132 -10 -7 -4 2
-245 14 -366 l7 -75 -74 -24 c-222 -71 -374 -202 -468 -404 -37 -79 -70 -181
-70 -218 0 -20 20 -29 62 -29 28 0 25 -4 -43 -48 -90 -59 -233 -177 -341 -282
-61 -59 -78 -81 -72 -93 28 -48 211 -166 336 -216 104 -42 168 -54 259 -49 94
6 177 43 262 119 31 27 57 49 59 49 2 0 4 -21 5 -47 5 -124 34 -260 82 -386
11 -27 11 -27 46 -13 19 8 37 11 39 7 3 -4 -19 -40 -49 -80 -227 -302 -337
-655 -352 -1132 -9 -311 28 -620 108 -884 37 -122 41 -133 105 -265 182 -377
446 -646 812 -829 214 -107 382 -158 622 -186 148 -18 262 -18 430 0 179 19
262 37 449 97 636 205 1161 508 1547 893 328 328 518 657 595 1035 39 190 36
467 -7 658 -85 371 -361 677 -823 911 -321 162 -633 257 -1083 328 -60 9 -108
20 -108 23 0 4 37 61 83 126 71 102 89 122 131 142 89 42 194 171 266 326 56
121 117 303 105 315 -16 15 -213 31 -385 31 l-156 0 -10 42 c-9 44 -30 61 -87
73 -25 5 -28 9 -22 32 3 15 28 73 55 130 88 187 176 245 374 247 91 1 110 -2
119 -16 10 -16 9 -20 -21 -80 -2 -4 9 -3 25 1 19 5 34 19 46 44 24 47 54 49
103 4 51 -46 57 -100 16 -144 -21 -22 -26 -35 -19 -42 6 -6 9 -37 8 -70 -3
-80 21 -124 123 -229 98 -101 254 -228 265 -216 4 5 20 41 36 79 22 57 28 91
33 182 2 61 7 115 11 120 7 10 220 142 269 167 82 42 165 37 230 -12 26 -20
38 -23 50 -15 29 18 32 74 7 136 -6 15 -1 17 39 17 25 0 46 4 46 8 0 15 -55
86 -87 113 l-31 26 35 27 c48 39 73 84 73 132 0 67 -55 116 -111 99 -14 -5
-19 -16 -19 -44 0 -50 -30 -88 -76 -97 -43 -8 -134 15 -246 62 -150 64 -249
78 -343 50 l-48 -15 7 57 c15 130 19 369 7 376 -17 11 -145 -30 -223 -71 -84
-44 -172 -127 -199 -187 -11 -25 -25 -82 -31 -126 -12 -79 -6 -129 28 -255 5
-19 0 -20 -98 -21 -60 0 -133 -7 -176 -17 l-72 -17 -48 25 c-33 18 -62 25 -97
24 -43 0 -47 -2 -31 -12 83 -51 86 -92 14 -176 -29 -33 -80 -111 -113 -172
-33 -62 -70 -118 -81 -126 -21 -13 -21 -13 -30 184 -12 272 -10 364 14 451 23
84 29 81 -93 52 -62 -14 -83 -16 -91 -7 -6 7 -23 48 -39 92 -15 44 -45 114
-66 156 -68 136 -206 300 -236 281z m778 -1292 c10 -6 19 -14 19 -19 0 -10
-180 -35 -188 -26 -9 9 11 23 53 39 48 18 90 20 116 6z m-36 -1270 c554 -71
1025 -279 1256 -554 147 -175 208 -387 187 -652 -33 -413 -302 -805 -760
-1110 -290 -192 -703 -366 -1026 -431 -116 -23 -397 -23 -532 1 -402 72 -748
324 -930 678 -66 128 -106 251 -137 428 -33 188 -38 486 -9 645 81 453 344
768 760 914 126 44 333 84 551 105 102 10 489 -4 640 -24z"/>
<path d="M9749 12753 c-90 -84 -188 -247 -244 -408 -36 -102 -26 -97 -148 -70
-43 9 -81 15 -83 12 -2 -2 3 -31 11 -63 26 -97 29 -172 15 -418 -12 -225 -14
-234 -31 -223 -11 7 -35 43 -56 82 -46 89 -110 188 -156 243 -21 24 -37 53
-37 64 0 19 38 62 75 85 17 10 12 12 -36 12 -44 1 -64 -4 -94 -25 l-38 -25
-123 22 c-105 20 -133 21 -186 12 -35 -6 -64 -9 -66 -8 -1 1 8 24 20 51 20 42
23 65 23 169 0 111 -2 125 -29 183 -35 76 -105 143 -202 194 -60 31 -189 78
-215 78 -12 0 -11 -265 1 -359 6 -41 9 -76 7 -77 -2 -2 -25 3 -52 11 -96 29
-173 17 -372 -62 -179 -70 -228 -63 -277 42 -23 47 -31 55 -54 55 -40 0 -70
-25 -82 -68 -14 -54 3 -105 51 -151 21 -21 39 -42 39 -46 0 -4 -17 -24 -37
-44 -21 -21 -46 -52 -56 -69 l-18 -32 47 0 c44 0 46 -1 39 -22 -16 -51 -16
-86 -1 -117 19 -37 27 -38 52 -10 30 33 69 49 122 49 71 0 122 -22 266 -113
l129 -82 2 -95 c2 -98 21 -184 57 -253 13 -27 23 -36 31 -29 97 73 214 173
263 224 85 88 108 136 107 218 0 38 4 68 10 72 8 5 2 17 -16 36 -39 40 -45 89
-16 126 34 43 119 74 119 42 0 -23 38 -63 65 -68 24 -5 25 -4 10 12 -10 11
-15 31 -13 52 l3 33 115 -1 c108 0 119 -2 181 -32 100 -48 152 -113 223 -279
34 -79 34 -83 16 -93 -10 -5 -25 -10 -33 -10 -25 0 -66 -40 -75 -73 l-8 -32
-145 -2 c-158 -2 -380 -20 -392 -32 -9 -8 56 -202 102 -303 70 -158 183 -298
275 -342 40 -19 58 -40 126 -140 44 -65 78 -122 74 -127 -3 -5 -14 -9 -24 -9
-37 0 -396 -71 -531 -105 -197 -50 -383 -117 -559 -201 -259 -125 -424 -238
-575 -395 -106 -110 -168 -194 -225 -305 -152 -297 -166 -743 -34 -1125 230
-668 877 -1247 1794 -1606 446 -175 761 -233 1105 -204 761 64 1380 564 1600
1293 55 180 87 383 105 653 26 388 -38 771 -179 1070 -56 119 -146 265 -196
318 -19 21 -35 40 -35 43 0 9 59 4 65 -6 14 -23 26 -5 55 87 28 87 54 225 62
326 l3 39 60 -53 c33 -29 89 -66 125 -83 60 -29 73 -31 170 -30 93 0 115 4
192 33 127 48 349 186 365 228 11 28 -232 250 -394 360 l-85 58 36 6 c56 9 58
16 35 99 -27 97 -85 221 -137 290 -83 111 -231 211 -384 260 -38 12 -70 26
-73 31 -3 4 -1 46 4 91 6 46 12 145 15 221 l4 137 -132 0 -132 0 -18 38 c-26
53 -117 191 -192 289 -73 96 -92 130 -123 223 -12 36 -24 71 -27 79 -3 9 -35
-16 -93 -71 -70 -69 -106 -95 -182 -132 -52 -25 -114 -51 -139 -57 -45 -12
-47 -11 -105 28 -33 22 -105 59 -159 83 -116 52 -185 109 -246 205 -22 36 -43
65 -46 65 -2 0 -27 -21 -55 -47z m-606 -1259 c43 -14 65 -30 55 -39 -4 -4
-171 14 -176 20 -3 3 1 11 8 20 16 19 54 19 113 -1z m607 -1244 c190 -17 289
-37 329 -68 20 -14 139 -130 267 -257 164 -163 257 -265 320 -350 246 -330
348 -585 348 -865 -1 -505 -349 -986 -844 -1165 -271 -98 -563 -110 -866 -36
-292 72 -633 221 -889 389 -452 296 -711 641 -781 1042 -30 170 -6 402 56 544
61 142 192 287 358 396 326 216 718 330 1277 374 96 7 319 5 425 -4z"/>
<path d="M172 9880 c-55 -20 -99 -47 -144 -88 l-27 -25 77 -61 c189 -152 292
-334 338 -601 21 -118 23 -383 5 -680 -26 -440 -31 -584 -31 -842 0 -150 4
-316 10 -370 5 -54 14 -154 20 -223 38 -455 140 -872 285 -1160 183 -365 447
-560 760 -561 93 0 230 24 241 43 4 6 6 43 5 83 -8 311 186 511 584 599 276
61 841 58 1045 -6 89 -27 216 -84 226 -100 9 -14 -34 -46 -72 -52 -33 -6 -57
1 -150 43 -187 82 -257 103 -368 109 -135 7 -248 -12 -337 -54 -39 -19 -83
-34 -99 -34 -45 0 -161 -27 -231 -53 -184 -70 -314 -192 -409 -382 -42 -84
-73 -199 -130 -475 -71 -343 -119 -471 -214 -565 -64 -64 -115 -88 -186 -89
-128 -2 -238 124 -295 336 -41 155 11 281 143 347 86 43 195 36 228 -14 12
-19 13 -31 5 -63 -22 -80 -78 -117 -166 -110 -42 3 -43 2 -27 -16 23 -26 91
-56 127 -56 47 0 92 33 104 77 37 132 -17 239 -133 263 -48 10 -64 9 -124 -9
-196 -59 -280 -225 -227 -450 33 -138 122 -269 224 -329 41 -24 56 -27 131
-27 104 1 158 25 237 107 110 114 152 204 259 555 78 259 83 274 142 393 32
64 65 112 102 151 51 52 116 96 126 86 3 -2 -13 -31 -34 -63 -54 -82 -97 -169
-128 -261 -21 -63 -26 -97 -27 -183 -1 -160 35 -271 122 -372 103 -121 297
-96 362 47 20 44 25 144 9 175 -25 47 -151 47 -228 0 -27 -17 -32 -26 -32 -57
l0 -38 36 43 c40 47 68 53 105 24 28 -24 30 -73 2 -110 -34 -47 -110 -92 -156
-92 -34 0 -46 6 -78 39 -58 61 -82 135 -87 268 -8 212 50 366 192 508 135 135
252 198 473 253 130 33 160 32 199 -6 22 -23 25 -32 19 -66 l-6 -40 26 24 c15
14 32 44 38 68 16 59 31 65 127 52 231 -32 409 -124 570 -297 83 -89 190 -245
190 -277 0 -36 -24 -59 -71 -66 l-44 -7 39 -17 c24 -11 57 -16 89 -14 l50 3
23 -55 c20 -47 23 -73 24 -177 0 -68 -3 -123 -6 -123 -3 0 -42 29 -87 64 -45
35 -125 92 -177 127 -81 55 -99 73 -128 124 -42 76 -68 103 -159 166 -137 94
-452 223 -480 196 -15 -15 -33 -247 -33 -417 1 -170 14 -293 40 -368 12 -35
20 -65 18 -67 -1 -2 -28 3 -58 11 -46 12 -92 13 -295 3 -271 -13 -386 -9 -463
17 -29 9 -55 15 -58 11 -3 -3 1 -32 9 -64 8 -32 18 -76 21 -99 l7 -40 -58 -18
c-154 -49 -320 -144 -422 -244 l-76 -73 40 -21 c73 -38 156 -113 196 -177 9
-14 35 -69 58 -122 23 -53 58 -115 78 -138 l35 -42 -26 -82 c-34 -110 -85
-194 -180 -294 -43 -46 -77 -85 -75 -87 2 -2 36 -13 74 -26 89 -28 161 -68
255 -139 101 -78 184 -133 247 -164 29 -15 56 -35 62 -44 5 -10 7 -65 4 -129
-3 -61 -2 -114 3 -116 7 -5 333 7 422 15 21 2 27 -8 58 -93 73 -203 200 -349
379 -435 98 -47 242 -92 255 -78 5 4 10 26 12 48 l3 40 31 -50 c47 -76 180
-239 285 -349 l95 -99 27 29 c52 56 162 230 194 307 45 111 56 170 51 281 -2
53 -1 95 2 94 30 -13 190 -114 190 -120 0 -5 -19 -41 -41 -81 -23 -40 -57 -98
-75 -130 -42 -72 -72 -139 -90 -197 -12 -40 -19 -47 -55 -60 -47 -16 -60 -35
-32 -44 34 -11 46 -47 49 -146 2 -52 8 -119 14 -149 12 -65 70 -189 109 -234
16 -17 39 -52 51 -77 67 -133 182 -253 293 -305 79 -38 144 -48 407 -60 69 -4
166 -11 215 -17 50 -6 104 -12 122 -14 49 -5 184 -53 228 -81 48 -30 102 -98
115 -144 38 -132 -38 -271 -163 -299 -97 -22 -221 13 -295 83 -66 63 -87 133
-58 201 20 48 50 55 87 20 16 -15 31 -36 35 -46 9 -28 23 -21 29 16 8 41 2 65
-26 94 -27 30 -58 28 -106 -8 -48 -35 -83 -100 -83 -153 0 -93 102 -209 216
-247 152 -51 323 8 392 134 13 23 17 55 17 126 0 85 -3 102 -29 155 -17 35
-55 86 -90 121 -113 113 -153 124 -526 134 -248 7 -294 11 -352 29 -63 20
-147 73 -155 97 -2 6 34 -2 80 -18 46 -15 119 -33 162 -39 135 -20 258 16 337
98 86 88 91 215 11 252 -44 21 -144 26 -167 8 -18 -13 -18 -18 -7 -60 17 -59
45 -89 79 -85 34 4 42 28 9 28 -27 0 -77 35 -77 54 0 21 34 46 63 46 14 0 45
-15 69 -33 35 -27 44 -40 46 -70 3 -32 -3 -43 -43 -86 -80 -86 -215 -130 -357
-117 -125 11 -232 68 -339 179 -87 90 -139 171 -139 216 0 41 14 61 44 61 44
0 -3 22 -50 24 -48 1 -48 1 -62 46 -22 74 -26 225 -9 307 30 141 159 363 211
363 23 0 47 -21 60 -50 3 -8 4 9 2 38 -2 29 0 51 3 50 142 -61 228 -104 218
-109 -7 -4 -36 -12 -65 -19 -28 -6 -55 -16 -58 -22 -4 -5 9 -26 28 -46 20 -21
60 -71 90 -112 112 -153 208 -240 338 -305 88 -44 152 -62 274 -76 l103 -12 6
-116 c3 -64 14 -143 23 -176 9 -33 17 -91 18 -129 l1 -69 95 7 c52 3 120 13
150 21 30 8 58 15 62 15 4 0 29 -33 56 -72 60 -89 142 -181 227 -256 76 -68
130 -134 178 -220 l35 -64 26 69 c51 135 161 265 279 333 64 36 74 37 118 4
56 -43 147 -80 267 -109 131 -32 202 -71 293 -159 l60 -59 33 32 c43 42 111
162 141 248 28 79 55 234 55 312 l0 54 120 -6 c66 -4 120 -5 120 -3 0 2 -15
37 -34 77 -19 41 -37 85 -41 98 l-7 24 33 -26 c127 -94 272 -102 431 -21 60
30 152 100 218 164 55 54 59 52 31 -13 -41 -96 -150 -182 -351 -279 -296 -143
-369 -186 -438 -254 -205 -205 -159 -590 80 -670 74 -24 192 -12 271 27 156
79 243 252 203 404 -17 68 -39 100 -87 133 -61 43 -180 15 -195 -45 -11 -41
29 -133 58 -133 4 0 8 20 8 44 0 56 33 99 67 90 12 -3 23 -15 25 -28 2 -12 11
-22 24 -24 19 -3 44 -38 44 -62 0 -5 -10 -12 -22 -16 l-22 -7 22 -17 c26 -22
27 -41 5 -106 -21 -63 -120 -164 -195 -199 -65 -30 -145 -33 -203 -6 -60 27
-132 112 -151 179 -61 208 113 391 636 669 304 163 390 285 426 611 8 75 20
173 27 216 l12 79 53 -106 c55 -111 164 -267 186 -267 29 0 272 276 366 415
28 41 52 75 54 75 1 0 2 -19 2 -42 -1 -40 1 -43 27 -46 41 -5 131 24 237 75
81 40 109 61 190 142 102 102 144 172 194 317 23 68 24 69 57 67 19 -1 117 -6
219 -11 138 -7 187 -7 192 2 4 6 8 64 8 128 l0 117 94 55 c52 31 143 92 202
137 118 87 168 116 254 144 102 33 101 27 13 118 -91 97 -143 181 -180 293
l-26 82 36 42 c20 23 55 86 78 139 23 53 53 113 66 134 34 54 99 115 161 149
28 17 52 35 52 41 0 17 -110 118 -174 161 -83 55 -199 112 -289 142 l-79 26 7
45 c3 24 12 67 20 96 7 29 12 54 9 56 -2 2 -30 -2 -61 -10 -45 -11 -144 -14
-429 -14 l-371 0 28 41 c57 83 93 242 105 467 6 123 -10 425 -24 438 -4 4 -54
-12 -112 -35 -350 -142 -536 -270 -617 -422 -29 -54 -39 -63 -80 -79 -102 -39
-236 -106 -308 -154 -41 -28 -80 -51 -85 -51 -19 0 -11 58 8 64 12 4 25 27 36
62 10 31 30 85 46 122 l28 66 71 1 c53 0 75 4 88 18 16 16 16 17 -20 17 -41 0
-77 27 -77 58 0 24 58 119 127 210 172 225 441 372 679 372 53 0 66 -3 70 -17
15 -47 39 -94 55 -108 16 -16 17 -14 12 22 -5 35 -2 42 27 66 40 35 77 35 210
1 204 -51 345 -129 466 -256 144 -152 211 -353 183 -553 -18 -132 -91 -255
-151 -255 -46 0 -105 27 -145 66 -54 51 -60 100 -17 133 15 12 33 21 42 21 20
0 81 -66 88 -96 8 -31 20 -31 28 0 13 52 -40 116 -112 136 -85 23 -122 3 -122
-69 0 -131 105 -261 212 -261 83 0 210 100 259 205 88 185 15 415 -216 678
-42 49 -74 91 -71 94 10 11 89 -18 132 -48 133 -91 189 -207 345 -709 23 -74
59 -175 80 -225 40 -93 47 -138 26 -166 -20 -26 -57 -41 -85 -34 l-27 6 30
-25 c49 -42 96 -52 152 -33 45 14 50 14 78 -4 104 -65 129 -73 205 -74 59 0
85 5 123 24 77 38 141 110 192 216 51 106 89 145 141 145 28 0 38 -6 55 -32
l20 -33 -6 35 c-14 69 -41 107 -95 132 -43 20 -51 29 -60 63 -18 66 -32 96
-68 143 -59 78 -51 130 24 151 l29 8 -26 11 c-62 25 -122 18 -165 -20 -34 -30
-41 -32 -103 -30 -121 4 -188 -52 -199 -169 -2 -26 -2 -59 2 -73 10 -41 54
-85 92 -92 43 -8 111 16 144 51 l23 24 -36 -6 c-53 -8 -99 4 -136 35 -30 24
-35 36 -39 84 -4 52 -2 57 23 74 45 29 124 30 187 2 130 -60 179 -170 144
-321 -17 -73 -71 -197 -107 -249 l-22 -31 -20 24 c-32 40 -69 59 -114 59 -47
0 -55 -10 -20 -25 14 -6 23 -21 25 -39 12 -104 -51 -101 -154 6 -71 73 -105
128 -179 281 -79 164 -114 264 -171 487 -52 203 -93 296 -166 375 -136 149
-335 242 -601 280 -62 9 -141 25 -177 36 -51 16 -95 20 -200 21 -153 0 -225
-13 -361 -67 -48 -19 -96 -35 -107 -35 -32 0 -70 21 -88 48 l-16 24 -19 -28
c-13 -19 -18 -39 -15 -56 4 -20 -1 -33 -16 -48 -12 -11 -25 -20 -30 -20 -19 0
-210 -165 -278 -240 -41 -46 -76 -78 -78 -72 -6 18 46 131 93 201 62 94 195
218 281 263 77 40 224 90 329 113 101 22 325 29 505 16 400 -29 685 -156 829
-372 53 -79 80 -155 95 -264 l12 -90 79 -26 c139 -46 222 -56 330 -37 163 27
269 92 379 230 164 205 271 482 367 950 l40 197 -25 203 c-14 112 -28 235 -32
273 l-7 70 -18 -103 c-41 -236 -98 -419 -189 -607 -106 -218 -227 -371 -366
-464 -85 -57 -153 -81 -231 -81 -77 0 -136 27 -255 115 -193 143 -379 234
-590 290 -151 39 -244 48 -432 42 -246 -9 -373 -42 -602 -157 -176 -88 -300
-177 -435 -310 -244 -241 -411 -534 -487 -855 -24 -99 -27 -129 -27 -305 1
-186 7 -241 41 -351 3 -13 -1 -15 -21 -11 -14 2 -36 -3 -50 -12 -33 -22 -109
-125 -147 -200 l-30 -59 -64 71 c-38 42 -96 90 -140 118 l-76 47 -35 -18 c-68
-37 -122 -126 -170 -280 l-27 -83 -44 79 c-60 105 -135 194 -210 249 -95 68
-92 68 -161 -5 -67 -72 -113 -159 -140 -267 -19 -73 -19 -73 -32 -43 -67 161
-112 227 -219 329 -40 37 -104 89 -143 113 l-70 46 -36 -19 c-20 -10 -72 -55
-116 -99 -92 -93 -154 -193 -201 -329 l-31 -91 -43 85 c-55 111 -112 190 -194
270 -74 72 -169 140 -195 140 -27 0 -153 -92 -200 -147 -24 -27 -73 -110 -113
-193 -56 -113 -73 -140 -79 -125 -4 11 -19 54 -33 96 -15 41 -45 103 -67 137
-56 86 -149 182 -176 182 -30 0 -100 -56 -155 -124 -42 -53 -96 -149 -129
-231 -12 -29 -12 -28 -26 49 -24 140 -71 242 -154 338 -36 42 -37 42 -65 28
-16 -8 -63 -49 -105 -90 -59 -60 -86 -97 -122 -168 l-46 -91 -16 56 c-23 79
-77 182 -128 245 -59 73 -57 66 -42 138 19 88 19 325 0 436 -44 254 -144 484
-305 699 -225 302 -547 537 -880 643 -185 58 -245 67 -480 67 -188 0 -228 -3
-318 -23 -265 -59 -518 -178 -723 -339 -106 -83 -213 -103 -342 -63 -222 69
-466 375 -600 755 -139 393 -171 886 -97 1510 31 263 71 446 180 815 26 89 39
223 29 299 -5 34 -27 108 -49 164 -75 193 -189 346 -296 397 -68 32 -171 36
-242 10z m3477 -4044 c105 -77 214 -220 270 -353 56 -133 51 -148 -19 -51 -57
79 -200 229 -262 275 l-48 35 0 64 c0 35 3 64 6 64 4 0 27 -15 53 -34z m5000
-1711 c110 -103 199 -368 204 -602 1 -89 -1 -105 -24 -149 -21 -41 -33 -52
-75 -67 -30 -12 -78 -19 -126 -20 -67 0 -81 3 -110 25 -76 58 -115 186 -125
405 -12 276 53 453 168 453 33 0 48 -7 88 -45z m-4360 -40 c73 -62 111 -210
111 -432 0 -230 -34 -349 -113 -401 -37 -24 -49 -27 -127 -26 -177 3 -219 67
-207 314 6 123 25 210 77 353 66 182 175 262 259 192z m2626 -20 c96 -56 189
-203 240 -379 39 -138 49 -217 50 -401 0 -149 -3 -179 -22 -240 -31 -98 -61
-138 -130 -172 -57 -27 -62 -28 -228 -28 -151 0 -175 2 -215 21 -132 61 -195
214 -193 464 2 274 62 500 173 646 88 116 218 152 325 89z m-839 -10 c113 -66
201 -216 261 -444 21 -80 26 -127 30 -283 6 -202 -3 -280 -39 -353 -48 -96
-110 -133 -250 -148 -240 -27 -390 34 -447 181 -86 219 -59 597 60 841 104
213 244 288 385 206z m2072 -25 c23 -16 57 -51 77 -77 133 -182 220 -657 145
-791 -31 -54 -96 -83 -205 -89 -71 -4 -85 -2 -124 19 -53 28 -101 107 -127
208 -31 120 -1 504 51 649 8 25 27 60 41 78 34 45 83 46 142 3z m-3359 -35
c78 -70 122 -234 124 -455 1 -141 -11 -187 -87 -312 -90 -152 -154 -198 -255
-183 -92 13 -140 66 -162 177 -17 90 13 351 58 493 84 265 213 378 322 280z
m550 -49 c40 -21 106 -97 136 -157 15 -29 38 -95 53 -148 22 -84 25 -117 26
-266 1 -195 -11 -270 -58 -347 -66 -111 -183 -142 -371 -98 -163 37 -194 82
-203 296 -5 150 7 259 45 379 55 176 128 291 212 335 43 23 121 26 160 6z
m2259 -22 c123 -72 232 -311 263 -577 12 -104 8 -215 -11 -278 -31 -107 -106
-153 -263 -162 -120 -7 -177 3 -231 41 -86 59 -125 173 -133 392 -16 435 159
709 375 584z m838 -950 c12 -49 -4 -255 -26 -329 -37 -124 -42 -110 48 -139
92 -29 208 -52 304 -61 l67 -7 -50 -60 c-58 -70 -106 -160 -115 -217 -4 -23
-10 -41 -13 -41 -4 0 -27 41 -51 91 l-45 90 22 40 c12 21 17 41 12 45 -5 3
-29 2 -54 -2 -44 -6 -46 -5 -90 39 -24 25 -70 65 -102 89 -70 54 -369 254
-435 293 -27 15 -48 31 -48 36 0 5 11 16 25 25 14 9 37 36 51 60 14 24 27 44
27 44 1 0 31 -9 65 -20 35 -11 90 -20 121 -20 62 0 193 30 238 54 38 21 42 20
49 -10z m-3899 -58 c94 -21 167 -20 241 3 l60 18 44 -44 c24 -25 68 -57 98
-73 l56 -28 12 -83 c6 -45 11 -84 9 -85 -1 -2 -32 7 -67 20 -36 13 -99 29
-141 35 -96 15 -187 -2 -290 -54 -40 -20 -76 -32 -80 -28 -18 18 -40 135 -46
242 -6 109 -6 113 13 103 10 -5 51 -17 91 -26z m3621 -366 c198 -108 346 -290
396 -486 21 -81 21 -114 0 -114 -21 0 -84 -38 -84 -51 0 -5 15 -9 34 -9 59 0
70 -21 63 -120 -21 -301 -174 -524 -416 -607 -73 -25 -183 -30 -261 -12 -52
12 -117 53 -125 80 -18 57 50 169 104 169 32 0 64 -30 59 -56 -2 -10 -22 -31
-46 -47 -23 -16 -40 -33 -37 -38 11 -17 45 -9 76 19 24 21 32 39 36 73 3 26 0
55 -6 68 -25 46 -143 13 -201 -57 -16 -20 -32 -33 -35 -30 -3 3 -15 74 -26
157 -28 223 -45 299 -93 412 -7 16 -2 16 61 2 118 -24 359 11 628 92 147 45
165 52 165 68 0 21 -91 194 -138 264 -51 74 -134 165 -196 213 -42 33 -56 50
-38 50 4 0 40 -18 80 -40z m-3879 -127 c-30 -32 -69 -75 -87 -97 -18 -21 -34
-37 -36 -35 -19 31 -66 91 -89 116 l-29 31 68 6 c38 4 101 13 139 20 39 7 74
14 79 15 5 0 -15 -25 -45 -56z"/>
<path d="M12283 9882 c-107 -38 -183 -124 -273 -307 -76 -155 -93 -221 -93
-355 1 -97 6 -122 67 -345 36 -132 79 -303 94 -380 l27 -140 8 95 c39 460 141
820 300 1062 60 93 161 206 201 227 35 19 33 33 -11 71 -87 77 -222 107 -320
72z"/>
<path d="M12108 8244 c-11 -10 -9 -488 2 -674 16 -270 22 -318 32 -290 23 58
-11 988 -34 964z"/>
<path d="M6227 7455 c-72 -247 -205 -571 -367 -890 -65 -126 -182 -358 -262
-515 -244 -480 -285 -673 -187 -880 36 -76 133 -176 209 -216 49 -26 65 -29
150 -29 85 0 101 3 150 29 32 16 89 63 136 110 67 68 88 98 131 186 99 202
108 286 100 950 -3 267 -11 598 -17 735 -6 138 -14 324 -18 415 l-8 165 -17
-60z"/>
<path d="M6486 7460 c-13 -112 -26 -1274 -16 -1520 18 -438 29 -505 112 -679
42 -88 62 -116 132 -187 111 -112 167 -139 291 -139 83 0 95 3 152 34 69 37
155 121 196 191 72 124 75 288 7 490 -30 89 -185 403 -320 645 -245 443 -380
731 -495 1060 -53 149 -53 150 -59 105z"/>
<path d="M7087 6533 c253 -428 425 -895 440 -1195 11 -201 -30 -313 -161 -444
-68 -69 -97 -89 -186 -133 -58 -28 -113 -51 -122 -51 -9 0 -20 -4 -23 -10 -15
-25 153 -3 284 36 118 36 395 178 446 228 46 47 75 122 75 198 0 207 -163 572
-441 983 -139 206 -369 515 -383 515 -3 0 29 -57 71 -127z"/>
<path d="M5591 6459 c-431 -553 -642 -926 -683 -1209 -21 -140 18 -247 116
-321 75 -57 291 -165 411 -205 89 -30 128 -37 205 -40 l95 -4 -70 20 c-231 68
-384 215 -424 408 -37 176 18 477 145 800 52 133 227 497 304 633 28 50 49 93
47 96 -3 2 -69 -78 -146 -178z"/>
<path d="M6321 5018 c-109 -59 -135 -149 -86 -300 54 -161 171 -438 185 -438
9 0 89 197 148 365 30 84 36 114 36 187 1 73 -2 91 -20 115 -64 86 -178 117
-263 71z"/>
</g>
</svg>
